<?xml version="1.0" encoding="UTF-8" standalone="no"?>
<!DOCTYPE svg PUBLIC "-//W3C//DTD SVG 1.1//EN" "http://www.w3.org/Graphics/SVG/1.1/DTD/svg11.dtd">
<svg version="1.1" xmlns="http://www.w3.org/2000/svg" xmlns:xlink="http://www.w3.org/1999/xlink" preserveAspectRatio="xMidYMid meet" viewBox="0 0 640 640" width="640" height="640"><defs><path d="M286.87 443.08L318.57 289.7L150.48 328.71L137.74 490.91L286.87 443.08Z" id="b1s3kppvkF"></path><path d="M288.38 471.32L320.08 317.95L151.98 356.95L139.24 519.15L288.38 471.32Z" id="cXiMwCuY3"></path><path d="M291.14 502.11L322.84 348.73L154.74 387.74L142 549.94L291.14 502.11Z" id="b26AZ4ikfc"></path><path d="M394.3 378.98C355.27 422.4 288.85 426.45 246.08 388C203.3 349.55 200.26 283.08 239.29 239.66C278.31 196.23 344.73 192.19 387.51 230.64C430.29 269.08 433.33 335.55 394.3 378.98Z" id="f28U2WpDNu"></path><path d="M466.3 243.44L498 90.06L329.9 129.07L317.16 291.27L466.3 243.44Z" id="a2ZagSpCuZ"></path><path d="M467.8 271.68L499.5 118.31L331.41 157.31L318.67 319.51L467.8 271.68Z" id="b2undNFci5"></path><path d="M470.56 302.47L502.26 149.09L334.17 188.1L321.43 350.3L470.56 302.47Z" id="bfGD9ZSfW"></path></defs><g><g><g><g><use xlink:href="#b1s3kppvkF" opacity="1" fill="#b19e19" fill-opacity="1"></use></g><g><use xlink:href="#cXiMwCuY3" opacity="1" fill="#ddc941" fill-opacity="1"></use></g><g><use xlink:href="#b26AZ4ikfc" opacity="1" fill="#f8e771" fill-opacity="1"></use></g></g><g><g><filter id="shadow8637250" x="190.89" y="183.25" width="264.8" height="265.14" filterUnits="userSpaceOnUse" primitiveUnits="userSpaceOnUse"><feFlood></feFlood><feComposite in2="SourceAlpha" operator="in"></feComposite><feGaussianBlur stdDeviation="1"></feGaussianBlur><feOffset dx="13" dy="13" result="afterOffset"></feOffset><feFlood flood-color="#ff8400" flood-opacity="0.5"></feFlood><feComposite in2="afterOffset" operator="in"></feComposite><feMorphology operator="dilate" radius="1"></feMorphology><feComposite in2="SourceAlpha" operator="out"></feComposite></filter><path d="M394.3 378.98C355.27 422.4 288.85 426.45 246.08 388C203.3 349.55 200.26 283.08 239.29 239.66C278.31 196.23 344.73 192.19 387.51 230.64C430.29 269.08 433.33 335.55 394.3 378.98Z" id="d1zc8iarOw" fill="white" fill-opacity="1" filter="url(#shadow8637250)"></path></g><use xlink:href="#f28U2WpDNu" opacity="1" fill="#f8c771" fill-opacity="0"></use><g><use xlink:href="#f28U2WpDNu" opacity="1" fill-opacity="0" stroke="#ffc07f" stroke-width="10" stroke-opacity="1"></use></g><g><filter id="shadow11990837" x="190.89" y="183.25" width="264.8" height="265.14" filterUnits="userSpaceOnUse" primitiveUnits="userSpaceOnUse"><feFlood></feFlood><feComposite in2="SourceAlpha" operator="out"></feComposite><feGaussianBlur stdDeviation="1"></feGaussianBlur><feOffset dx="13" dy="13" result="afterOffset"></feOffset><feFlood flood-color="#ff8400" flood-opacity="0.5"></feFlood><feComposite in2="afterOffset" operator="in"></feComposite><feMorphology operator="dilate" radius="1"></feMorphology><feComposite in2="SourceAlpha" operator="in"></feComposite></filter><path d="M394.3 378.98C355.27 422.4 288.85 426.45 246.08 388C203.3 349.55 200.26 283.08 239.29 239.66C278.31 196.23 344.73 192.19 387.51 230.64C430.29 269.08 433.33 335.55 394.3 378.98Z" id="b1gHmcVAuz" fill="white" fill-opacity="1" filter="url(#shadow11990837)"></path></g></g><g><g><use xlink:href="#a2ZagSpCuZ" opacity="1" fill="#b19e19" fill-opacity="1"></use></g><g><use xlink:href="#b2undNFci5" opacity="1" fill="#ddc941" fill-opacity="1"></use></g><g><use xlink:href="#bfGD9ZSfW" opacity="1" fill="#f8e771" fill-opacity="1"></use></g></g></g></g></svg>